<?xml version="1.0" standalone="no"?>
<!DOCTYPE svg PUBLIC "-//W3C//DTD SVG 1.1//EN" "http://www.w3.org/Graphics/SVG/1.1/DTD/svg11.dtd" >
<svg>
<metadata>
Created by FontForge 20110222 at Mon Mar  7 04:03:30 2011
 By www-data
(c) 2001, Graham Meade. All rights reserved. For more works by the designer visit www.apostrophiclab.com
</metadata>
<defs>
<font id="AsenineWide" horiz-adv-x="1599" >
  <font-face 
    font-family="Asenine Wide"
    font-weight="400"
    font-stretch="normal"
    units-per-em="2455"
    panose-1="2 0 4 0 0 0 0 0 0 0"
    ascent="1964"
    descent="-491"
    x-height="967"
    cap-height="1432"
    bbox="-471 -483 2866 1972"
    underline-thickness="81"
    underline-position="-176"
    unicode-range="U+0020-2122"
  />
    <missing-glyph />
    <glyph glyph-name="space" unicode=" " horiz-adv-x="1092" 
 />
    <glyph glyph-name="space" unicode="&#xa0;" horiz-adv-x="1092" 
 />
    <glyph glyph-name="exclam" unicode="!" horiz-adv-x="369" 
d="M247 287h-125v1169h125v-1169zM300 68q0 -78 -114 -78q-115 0 -115 78q0 75 115 75q114 0 114 -75z" />
    <glyph glyph-name="quotedbl" unicode="&#x22;" horiz-adv-x="696" 
d="M627 1434l-15 -333h-129l-15 333h159zM229 1434l-15 -333h-129l-14 333h158z" />
    <glyph glyph-name="numbersign" unicode="#" horiz-adv-x="1753" 
d="M1059 469l56 283h-425l-56 -283h425zM1308 1118l-56 -287h431l-15 -79h-431l-55 -283h430l-14 -82h-431l-55 -287h-124l56 287h-424l-56 -287h-119l56 287h-430l14 82h431l55 283h-430l15 79h431l55 287h119l-56 -287h424l56 287h123z" />
    <glyph glyph-name="dollar" unicode="$" horiz-adv-x="1488" 
d="M1419 369q0 -293 -455 -355v-173h-134v161q-47 -2 -97 -2h-113v-159h-136v159q-241 3 -413 60v86q251 -62 413 -60v676q-171 52 -246 93q-167 93 -167 255q0 251 413 306v163h136v-150q61 3 130 3h80v147h134v-147q109 -10 127 -13q107 -15 199 -47v-78q-159 52 -326 60
v-621q191 -54 259 -92q196 -111 196 -272zM830 770v584h-118q-49 0 -92 -2v-527l22 -6zM484 864v474q-279 -46 -279 -222q0 -123 134 -195q48 -26 145 -57zM1272 362q0 130 -164 211q-46 23 -144 54v-516q308 54 308 251zM830 95v572q-13 4 -62 17l-148 40v-638q117 1 210 9
z" />
    <glyph glyph-name="percent" unicode="%" horiz-adv-x="1881" 
d="M996 1166q0 -159 -159 -242q-126 -65 -302 -65q-175 0 -303 65q-161 83 -161 242q0 160 161 243q127 66 303 66t302 -66q159 -83 159 -243zM1683 1442l-1416 -1467h-134l1424 1467h126zM1812 303q0 -159 -161 -242q-127 -65 -303 -65q-177 0 -302 64q-160 82 -160 243
t160 244q125 65 302 65q176 0 303 -66q161 -83 161 -243zM870 1166q0 117 -115 178q-92 49 -220 49t-221 -49q-118 -61 -118 -178t118 -178q93 -49 221 -49q127 0 220 50q115 61 115 177zM1686 303q0 117 -117 178q-93 50 -221 50t-221 -49q-118 -62 -118 -179t118 -178
q93 -49 221 -49q129 0 221 49q117 61 117 178z" />
    <glyph glyph-name="ampersand" unicode="&#x26;" horiz-adv-x="1578" 
d="M1509 400q0 -169 -206 -287l2 -1l-739 -357q137 -71 275 -71q96 0 333 76q185 59 296 59l-2 -76q-81 0 -277 -58l-27 -8l-12 -4q-201 -67 -311 -67q-201 0 -460 161l88 44l386 187q-31 -2 -63 -2q-285 0 -492 105q-229 116 -229 299q0 168 207 286q98 56 220 86
q-86 26 -153 66q-177 105 -177 257q0 166 189 268q176 95 430 95q261 0 432 -93q186 -101 186 -270q0 -152 -177 -257q-67 -40 -146 -65q-92 -40 -290 -40q-208 0 -364 -65q-212 -88 -212 -267t212 -267q156 -65 364 -65q182 0 318 53l96 46q157 95 157 233zM1270 1096
q0 157 -173 235q-131 59 -310 59q-175 0 -309 -60q-176 -79 -176 -234q0 -157 175 -235q131 -58 310 -58q170 0 307 63q176 80 176 230z" />
    <glyph glyph-name="quotesingle" unicode="'" horiz-adv-x="299" 
d="M229 1434l-15 -333h-129l-14 333h158z" />
    <glyph glyph-name="parenleft" unicode="(" horiz-adv-x="595" 
d="M526 1599q-355 -411 -355 -860q0 -487 355 -842l-48 -72q-407 384 -407 912q0 492 400 927z" />
    <glyph glyph-name="parenright" unicode=")" horiz-adv-x="595" 
d="M526 737q0 -528 -408 -912l-47 72q355 355 355 842q0 449 -355 860l55 65q400 -435 400 -927z" />
    <glyph glyph-name="asterisk" unicode="*" horiz-adv-x="1218" 
d="M1149 1067h-499l7 5v-2q41 -191 371 -191l-10 -64q-210 0 -343 84q-46 29 -74 60q-26 -30 -73 -60q-133 -84 -342 -84l-11 64q125 0 221 38q126 49 150 150h-475v65h475v3q-14 73 -93 126q-105 70 -272 70l3 58q281 0 417 -143q30 32 73 59q131 84 344 84l3 -58
q-166 0 -271 -70q-80 -53 -93 -126v-3h492v-65z" />
    <glyph glyph-name="plus" unicode="+" horiz-adv-x="1487" 
d="M1417 569h-613v-419h-120v419h-613v82h613v420h120v-420h613v-82z" />
    <glyph glyph-name="comma" unicode="," horiz-adv-x="389" 
d="M320 80q0 -14 -4 -26l2 -1l-110 -221h-137l75 177q-66 17 -66 71q0 75 125 75h3v1v-1q112 -1 112 -75z" />
    <glyph glyph-name="hyphen" unicode="-" horiz-adv-x="1120" 
d="M1051 455h-980v82h980v-82z" />
    <glyph glyph-name="period" unicode="." horiz-adv-x="369" 
d="M300 68q0 -78 -114 -78q-115 0 -115 78q0 75 115 75q114 0 114 -75z" />
    <glyph glyph-name="slash" unicode="/" horiz-adv-x="1087" 
d="M1018 1456l-811 -1454h-136l813 1454h134z" />
    <glyph glyph-name="zero" unicode="0" horiz-adv-x="1623" 
d="M1554 717q0 -347 -137 -521q-173 -221 -595 -221q-436 0 -612 216q-139 171 -139 526q0 354 139 525q174 214 612 214q433 0 601 -215q131 -167 131 -524zM1413 719q0 332 -87 463q-128 192 -504 192q-384 0 -516 -191q-94 -136 -94 -464q0 -327 95 -465
q134 -193 515 -193q377 0 504 194q87 133 87 464z" />
    <glyph glyph-name="one" unicode="1" horiz-adv-x="594" 
d="M525 0h-123v1290l-331 -118v90l454 170v-1432z" />
    <glyph glyph-name="two" unicode="2" horiz-adv-x="1383" 
d="M1314 1042q0 -198 -195 -313q-164 -95 -377 -95h-9q-171 0 -298 -57q-160 -73 -192 -219v-189q0 -75 122 -87h887v-82h-873q-100 0 -173 34q-95 45 -95 134v134q0 185 171 300q129 87 318 108l9 1h6q276 18 397 84q167 91 167 249q0 175 -165 262q-130 68 -323 68
q-439 0 -495 -317h-125q29 210 228 314q162 85 396 85q242 0 408 -85q211 -109 211 -329z" />
    <glyph glyph-name="three" unicode="3" horiz-adv-x="1380" 
d="M1080 1128q0 127 -161 195q-136 58 -335 58q-209 0 -359 -79l-96 52q194 99 455 99q247 0 428 -83q202 -92 202 -243q0 -196 -318 -285q170 -47 280 -140q135 -115 135 -271q0 -233 -263 -356q-203 -95 -466 -95q-295 0 -511 135l92 53q173 -112 419 -112q220 0 382 78
q209 101 209 299q0 173 -168 275q-133 81 -326 98q-7 -1 -285 -1v73l282 -1q404 35 404 251z" />
    <glyph glyph-name="four" unicode="4" horiz-adv-x="1631" 
d="M1561 406h-307v-406h-135v406h-846q-202 0 -202 83q0 46 52 93l978 874h153v-975h307v-75zM1119 481v854l-879 -790q-18 -16 -18 -37q0 -27 88 -27h809z" />
    <glyph glyph-name="five" unicode="5" horiz-adv-x="1421" 
d="M1351 422q0 -228 -242 -339q-183 -83 -442 -83h-103q-307 0 -493 103l91 61q135 -84 381 -84h102q565 0 565 340q0 183 -183 271q-139 67 -345 67h-556v674h1078v-76h-943v-520h399q267 0 445 -77q246 -105 246 -337z" />
    <glyph glyph-name="six" unicode="6" horiz-adv-x="1603" 
d="M1534 503q0 -255 -252 -392q-203 -110 -481 -110q-277 0 -480 111q-250 137 -250 391q0 90 38 169l-4 1l474 780h133l-321 -530q176 81 410 81q277 0 481 -110q252 -137 252 -391zM1402 501q0 216 -202 331q-166 93 -399 93q-232 0 -397 -94q-201 -115 -201 -330
q0 -216 200 -331q165 -93 398 -93t399 93q202 115 202 331z" />
    <glyph glyph-name="seven" unicode="7" horiz-adv-x="1621" 
d="M1553 1337q0 -29 -32 -77l-833 -1260h-141l851 1282q15 23 15 47q0 27 -71 27h-1271v76h1280q202 0 202 -95z" />
    <glyph glyph-name="eight" unicode="8" horiz-adv-x="1578" 
d="M1509 400q0 -184 -227 -299q-206 -105 -490 -105q-285 0 -492 105q-229 116 -229 299q0 168 207 286q98 56 220 86q-86 26 -153 66q-177 105 -177 257q0 166 189 268q176 95 430 95q261 0 432 -93q186 -101 186 -270q0 -152 -177 -257q-67 -40 -146 -65q123 -30 224 -88
q203 -116 203 -285zM1270 1096q0 157 -173 235q-131 59 -310 59q-175 0 -309 -60q-176 -79 -176 -234q0 -157 175 -235q131 -58 310 -58q170 0 307 63q176 80 176 230zM818 798v5q-38 1 -57 0v-5h57zM820 733v5h-61v-5q13 -1 28 -1q17 0 33 1zM1363 401q0 156 -172 248
q-158 84 -399 84q-208 0 -364 -65q-212 -88 -212 -267t212 -267q156 -65 364 -65q241 0 399 84q172 92 172 248z" />
    <glyph glyph-name="nine" unicode="9" horiz-adv-x="1603" 
d="M1534 951q0 -90 -39 -168l5 -1l-474 -781h-133l321 530q-176 -81 -410 -81q-275 0 -480 111q-253 137 -253 390t253 391q205 111 480 111q278 0 480 -110q250 -137 250 -392zM1402 953q0 216 -200 331q-165 93 -398 93q-235 0 -399 -93q-202 -114 -202 -331t202 -331
q164 -93 399 -93q230 0 396 95q202 115 202 329z" />
    <glyph glyph-name="colon" unicode=":" horiz-adv-x="370" 
d="M302 713q0 -76 -114 -76q-117 0 -117 76q0 78 117 78q114 0 114 -78zM302 68q0 -78 -114 -78q-117 0 -117 78q0 75 117 75q114 0 114 -75z" />
    <glyph glyph-name="semicolon" unicode=";" horiz-adv-x="389" 
d="M310 713q0 -76 -114 -76q-116 0 -116 76q0 78 116 78q114 0 114 -78zM320 80q0 -14 -4 -26l2 -1l-110 -221h-137l75 177q-66 17 -66 71q0 75 125 75h3v1v-1q112 -1 112 -75z" />
    <glyph glyph-name="less" unicode="&#x3c;" horiz-adv-x="1397" 
d="M1327 98l-1256 482v61l1256 483v-100l-1057 -414l1057 -414v-98z" />
    <glyph glyph-name="equal" unicode="=" horiz-adv-x="1666" 
d="M1598 752h-1527v79h1527v-79zM1598 387h-1527v82h1527v-82z" />
    <glyph glyph-name="greater" unicode="&#x3e;" horiz-adv-x="1397" 
d="M1327 580l-1256 -482v98l1057 414l-1057 414v100l1256 -483v-61z" />
    <glyph glyph-name="question" unicode="?" horiz-adv-x="1338" 
d="M1269 1042q0 -365 -614 -415v-359h-129v443h44q207 0 359 65q205 88 205 268q0 175 -165 262q-130 68 -323 68q-215 0 -346 -88q-54 -36 -76 -99q-10 -25 -28 -130h-125q29 213 142 288q166 111 437 111q242 0 408 -85q211 -109 211 -329zM705 68q0 -78 -114 -78
q-117 0 -117 78q0 75 117 75q114 0 114 -75z" />
    <glyph glyph-name="at" unicode="@" horiz-adv-x="2857" 
d="M2788 174q-232 -220 -661 -347q-358 -106 -675 -106q-564 0 -930 185q-451 228 -451 616q0 330 297 572q436 356 1192 356q500 0 830 -168q389 -199 389 -504q0 -346 -366 -540q-209 -111 -412 -111q-106 0 -153 21q-73 31 -73 122l25 4l-11 15q-165 -107 -399 -158
q-138 -30 -282 -27q-320 7 -468 155q-90 92 -90 211q1 72 35 151q107 250 391 380q246 112 546 106q386 -8 515 -227l82 197l126 -3l-325 -780l3 1q0 -54 13 -69q21 -23 103 -23q133 0 292 93q301 176 301 472q0 293 -332 458q-299 148 -755 148q-506 0 -854 -192
q-465 -257 -465 -672q0 -402 438 -586q314 -131 782 -131q289 0 656 109q416 124 610 311zM1936 722q0 87 -46 155q-101 148 -395 154q-278 6 -494 -114q-208 -115 -284 -297q-30 -72 -30 -138q0 -95 66 -167q116 -126 388 -132q145 -3 287 35q242 65 414 194l54 131
q40 98 40 179z" />
    <glyph glyph-name="A" unicode="A" horiz-adv-x="1561" 
d="M1492 0h-135v711h-1152v-711h-134v926q0 274 229 414q190 116 483 116q339 0 531 -155q178 -144 178 -375v-926zM1357 791v104q0 479 -574 479q-578 0 -578 -479v-104h1152z" />
    <glyph glyph-name="B" unicode="B" horiz-adv-x="1515" 
d="M1446 394q0 -215 -245 -317q-179 -74 -429 -74h-430q-92 0 -171 39q-97 48 -98 131l-2 1125h1q0 90 94 135q73 35 173 35l366 1q225 0 400 -79q230 -103 230 -300q0 -234 -372 -319q483 -78 483 -377zM1194 1082q0 136 -138 220q-95 58 -176 74q-49 10 -178 10h-375
q-122 -12 -122 -87v-506h389v1h69q186 0 331 55q200 77 200 233zM1305 394q0 320 -605 320h-129v-1h-366l3 -541q1 -75 122 -87h418q557 0 557 309z" />
    <glyph glyph-name="C" unicode="C" horiz-adv-x="1983" 
d="M1914 1239l-102 -53q-268 188 -660 188q-358 0 -620 -146q-320 -178 -320 -509q0 -333 319 -512q261 -146 621 -146q383 0 660 195l72 -82q-311 -199 -732 -199q-411 0 -711 163q-370 201 -370 579q0 374 372 576q302 163 709 163q446 0 762 -217z" />
    <glyph glyph-name="D" unicode="D" horiz-adv-x="1735" 
d="M1666 728q0 -315 -213 -508q-239 -217 -697 -217h-414q-92 0 -171 39q-97 48 -98 131l-2 1125h1q0 90 94 135q73 35 173 35l366 1q453 0 718 -224q243 -205 243 -517zM1525 730q0 277 -201 456q-224 200 -625 200h-372q-122 -12 -122 -87l3 -1127q0 -75 122 -87l418 -1
q402 0 603 197q174 170 174 449z" />
    <glyph glyph-name="E" unicode="E" horiz-adv-x="1206" 
d="M1137 0h-798q-95 0 -172 37q-96 48 -96 133v1092h1q0 90 94 135q73 35 173 35h798v-82h-810q-122 -12 -122 -87v-506h801v-80h-801v-508q0 -75 122 -87h810v-82z" />
    <glyph glyph-name="F" unicode="F" horiz-adv-x="1206" 
d="M1137 1350h-810q-122 -12 -122 -87v-506h783v-80h-783v-677h-134v1262h1q0 90 94 135q73 35 173 35h798v-82z" />
    <glyph glyph-name="G" unicode="G" horiz-adv-x="1983" 
d="M1914 1239l-102 -53q-268 188 -660 188q-358 0 -620 -146q-320 -178 -320 -509q0 -333 319 -512q261 -146 621 -146q357 0 623 170v332q0 75 -122 87h-810v82h798q96 0 171 -35q97 -46 97 -135v-582h-134v132q-274 -137 -623 -137q-411 0 -711 163q-370 201 -370 579
q0 374 372 576q302 163 709 163q446 0 762 -217z" />
    <glyph glyph-name="H" unicode="H" horiz-adv-x="1563" 
d="M1494 0h-137v711h-1152v-711h-134v1432h134v-641h1152v641h137v-1432z" />
    <glyph glyph-name="I" unicode="I" horiz-adv-x="274" 
d="M205 0h-134v1432h134v-1432z" />
    <glyph glyph-name="J" unicode="J" horiz-adv-x="1157" 
d="M1087 455q0 -196 -107 -319q-133 -151 -409 -151q-81 0 -178 15l-322 50l38 86l330 -54q62 -10 117 -10q203 0 309 119q87 98 87 243v998h135v-977z" />
    <glyph glyph-name="K" unicode="K" horiz-adv-x="1567" 
d="M1499 1h-172l-883 772l-239 -152v-619h-134v1432h134v-688l1064 683h199l-925 -593z" />
    <glyph glyph-name="L" unicode="L" horiz-adv-x="1206" 
d="M1137 0h-798q-97 0 -171 35q-97 46 -97 135v1262h134v-1263q0 -75 122 -87h810v-82z" />
    <glyph glyph-name="M" unicode="M" horiz-adv-x="1984" 
d="M1915 1h-135l-1 1335q0 32 -33 32q-25 0 -40 -35l-538 -1206q-57 -129 -175 -129t-175 129l-538 1206q-15 35 -40 35q-33 0 -33 -32v-1340h-135l-1 1335q0 113 166 113q130 0 173 -96l545 -1227q15 -33 38 -33q22 0 36 32l548 1228q42 96 175 96q162 0 162 -112z" />
    <glyph glyph-name="N" unicode="N" 
d="M1530 124q0 -129 -173 -129q-117 0 -187 99l-884 1247q-14 21 -40 21q-41 0 -41 -37v-1325h-134v1315q0 129 172 129q118 0 188 -98l884 -1246q15 -21 40 -21q40 0 40 35v1318h135v-1308z" />
    <glyph glyph-name="O" unicode="O" horiz-adv-x="2178" 
d="M2109 717q0 -360 -285 -543q-310 -199 -732 -199q-468 0 -777 216q-244 171 -244 526q0 354 247 526q306 213 774 213q464 0 772 -216q245 -171 245 -523zM1968 719q0 319 -200 463q-266 192 -676 192q-414 0 -680 -191q-200 -144 -200 -464t200 -465q268 -193 680 -193
q410 0 676 194q200 145 200 464z" />
    <glyph glyph-name="P" unicode="P" horiz-adv-x="1461" 
d="M1392 1018q0 -195 -219 -326q-187 -112 -534 -112h-434v-580h-134v1282q0 89 97 135q75 35 171 35l402 -1q248 0 426 -92q225 -115 225 -341zM1251 1016q0 186 -171 280q-136 74 -339 74h-414q-122 -12 -122 -87v-621h481q216 0 366 70q199 92 199 284z" />
    <glyph glyph-name="Q" unicode="Q" horiz-adv-x="2178" 
d="M2109 717q0 -358 -280 -540q-134 -87 -290 -137q-128 -177 -390 -245q12 -3 44 -12q258 -78 364 -78q194 0 465 158v-92q-252 -147 -465 -147q-110 0 -341 69q-2 1 -13 4l-29 9q-154 49 -277 58h-17v1h-11q-193 0 -466 -159v91q248 147 466 147q13 0 28 -1q280 7 449 152
q-122 -20 -254 -20q-468 0 -777 216q-244 171 -244 526q0 354 247 526q306 213 774 213q464 0 772 -216q245 -171 245 -523zM1968 719q0 319 -200 463q-266 192 -676 192q-414 0 -680 -191q-200 -144 -200 -464t200 -465q268 -193 680 -193q186 0 345 42q42 75 42 164
q0 213 -203 332q-169 98 -399 98l3 70q277 0 480 -111q251 -137 251 -391q0 -55 -15 -106q92 42 169 98q203 146 203 462z" />
    <glyph glyph-name="R" unicode="R" horiz-adv-x="1461" 
d="M1392 1018q0 -196 -219 -326q-57 -34 -135 -60l352 -631h-135l-337 602q-123 -23 -279 -23h-434v-580h-134v1282q0 89 97 135q75 35 171 35l402 -1q248 0 426 -92q225 -115 225 -341zM1251 1016q0 185 -172 279q-137 75 -338 75h-414q-122 -12 -122 -87v-621h481
q216 0 366 70q199 92 199 284z" />
    <glyph glyph-name="S" unicode="S" horiz-adv-x="1488" 
d="M1419 369q0 -215 -253 -308q-176 -64 -433 -61l-87 1v-1h-37q-508 0 -508 373v57h116v-57q0 -287 403 -287h47q216 0 369 41q236 63 236 235q0 130 -164 211q-86 43 -340 111l-138 37q-290 78 -392 134q-167 93 -167 255q0 322 679 322h154q508 0 508 -369v-57h-118v57
q0 291 -403 291h-179q-507 0 -507 -238q0 -123 134 -195q81 -44 303 -102l213 -56q283 -74 368 -122q196 -111 196 -272z" />
    <glyph glyph-name="T" unicode="T" horiz-adv-x="1488" 
d="M1419 1350h-609v-1350h-135v1350h-604v82h1348v-82z" />
    <glyph glyph-name="U" unicode="U" horiz-adv-x="1561" 
d="M1492 506q0 -272 -228 -413q-191 -118 -481 -118q-295 0 -484 116q-228 139 -228 415v926h134v-891q0 -480 578 -480q574 0 574 480v891h135v-926z" />
    <glyph glyph-name="V" unicode="V" horiz-adv-x="1777" 
d="M1709 1432l-631 -1323q-62 -132 -190 -132q-125 0 -188 132l-629 1323h134l630 -1329q18 -37 53 -37t52 36l634 1330h135z" />
    <glyph glyph-name="W" unicode="W" horiz-adv-x="2647" 
d="M2578 1432l-629 -1323q-63 -132 -191 -132q-125 0 -188 132l-246 518l-246 -518q-62 -132 -190 -132q-125 0 -188 132l-629 1323h134l630 -1329q18 -37 53 -37q36 0 52 36l315 670l-315 660h135l631 -1329q17 -37 52 -37t52 36l633 1330h135z" />
    <glyph glyph-name="X" unicode="X" horiz-adv-x="1611" 
d="M1542 1h-137l-598 642l-600 -642h-136l667 715l-667 716h134l602 -644l600 644h135l-668 -716z" />
    <glyph glyph-name="Y" unicode="Y" horiz-adv-x="1611" 
d="M1542 1432l-672 -721v-711h-126v709l-673 723h134l602 -644l600 644h135z" />
    <glyph glyph-name="Z" unicode="Z" horiz-adv-x="1503" 
d="M1434 0h-1149q-214 0 -214 102q0 50 70 117l1125 1069q18 17 18 33q0 31 -77 31h-1119v80h1126q202 0 202 -105q0 -49 -50 -96l-1132 -1075q-26 -24 -26 -41q0 -33 80 -33h1146v-82z" />
    <glyph glyph-name="bracketleft" unicode="[" horiz-adv-x="561" 
d="M492 -179h-153q-96 0 -171 35q-97 45 -97 135v1472q0 89 97 135q74 35 171 35h153v-72h-180q-121 -12 -121 -87v-1494q0 -75 121 -87h180v-72z" />
    <glyph glyph-name="backslash" unicode="\" horiz-adv-x="988" 
d="M919 -3h-134l-714 1459h136z" />
    <glyph glyph-name="bracketright" unicode="]" horiz-adv-x="561" 
d="M492 -9q0 -90 -98 -135q-76 -35 -170 -35h-153v72h179q122 13 122 87v1494q0 74 -122 87h-179v72h153q96 0 170 -35q98 -46 98 -135v-1472z" />
    <glyph glyph-name="asciicircum" unicode="^" horiz-adv-x="959" 
d="M889 1121h-148l-260 237l-259 -237h-151l311 311h198z" />
    <glyph glyph-name="underscore" unicode="_" horiz-adv-x="1676" 
d="M1606 -483h-1535v80h1535v-80z" />
    <glyph glyph-name="grave" unicode="`" horiz-adv-x="646" 
d="M71 1432l326 -351h180l-322 351h-184z" />
    <glyph glyph-name="a" unicode="a" horiz-adv-x="1598" 
d="M1529 0h-127v180q-118 -110 -330 -165q-127 -33 -268 -33q-280 0 -482 109q-251 135 -251 392q0 261 245 395q197 107 482 107q385 0 604 -214v197h127v-968zM1402 303v131q0 202 -144 331q-161 144 -454 144q-236 0 -400 -92q-201 -114 -201 -332q0 -221 200 -334
q161 -90 401 -90q144 0 268 41q217 71 330 201z" />
    <glyph glyph-name="b" unicode="b" 
d="M1530 483q0 -258 -251 -393q-201 -108 -482 -108q-141 0 -269 33q-213 55 -330 165v-180l-127 1v1427h125v-657q221 214 607 214q284 0 481 -107q246 -134 246 -395zM1398 485q0 218 -202 332q-164 92 -399 92q-297 0 -457 -143q-142 -128 -142 -332v-131
q114 -130 330 -201q125 -41 269 -41q237 0 400 92q201 113 201 332z" />
    <glyph glyph-name="c" unicode="c" horiz-adv-x="1389" 
d="M1320 840l-92 -53q-174 122 -424 122q-235 0 -399 -93q-202 -114 -202 -331t202 -331q164 -93 399 -93q251 0 424 124l89 -56q-215 -147 -513 -147q-275 0 -480 111q-253 137 -253 390t253 391q205 111 480 111q303 0 516 -145z" />
    <glyph glyph-name="d" unicode="d" 
d="M1530 1428l-1 -1428h-127v180q-116 -110 -330 -165q-127 -33 -268 -33q-280 0 -482 109q-251 135 -251 392q0 261 245 395q197 107 482 107q386 0 606 -214v657h126zM1402 303v131q0 202 -144 331q-161 144 -454 144q-236 0 -400 -92q-201 -114 -201 -332
q0 -221 200 -334q161 -90 401 -90q144 0 268 41q217 71 330 201z" />
    <glyph glyph-name="e" unicode="e" horiz-adv-x="1600" 
d="M1532 499q0 -26 -8 -44h-1320q17 -205 223 -310q164 -84 392 -84q138 0 283 31q163 35 246 93l94 -59q-211 -144 -623 -144q-282 0 -489 108q-259 136 -259 393q0 253 253 391q205 111 480 111q268 0 473 -108q255 -133 255 -378zM1400 535q-28 192 -222 292
q-159 82 -374 82t-375 -82q-196 -100 -224 -292h1195z" />
    <glyph glyph-name="f" unicode="f" horiz-adv-x="766" 
d="M780 1334l-156 20q-47 6 -93 6q-145 0 -235 -64q-103 -72 -103 -211v-118h467v-80h-467v-887h-122v1094q0 173 144 267q124 80 307 80q62 0 123 -9l135 -20v-78z" />
    <glyph glyph-name="g" unicode="g" horiz-adv-x="1598" 
d="M1529 39q0 -261 -237 -391q-190 -105 -473 -105q-174 0 -305 24q-76 14 -285 72l44 84q249 -96 552 -96q235 0 388 87q189 108 189 325v135q-57 -47 -165 -100q-90 -44 -150 -59q-132 -33 -283 -33q-280 0 -482 109q-251 135 -251 392q0 261 245 395q197 107 482 107
q385 0 604 -214v196h127v-928zM1402 287v147q0 202 -144 331q-161 144 -454 144q-236 0 -400 -92q-201 -114 -201 -332q0 -221 200 -334q161 -90 401 -90q158 0 283 41q194 63 315 185z" />
    <glyph glyph-name="h" unicode="h" horiz-adv-x="1320" 
d="M1251 0h-123v573q0 164 -143 256q-123 78 -297 78q-199 0 -335 -89q-160 -103 -160 -292v-526h-122v1432h122v-637q176 192 495 192q235 0 385 -95q178 -114 178 -335v-557z" />
    <glyph glyph-name="i" unicode="i" horiz-adv-x="321" 
d="M252 1239q0 -61 -93 -61q-88 0 -88 61q0 59 88 59q93 0 93 -59zM224 0h-127v967h127v-967z" />
    <glyph glyph-name="j" unicode="j" horiz-adv-x="807" 
d="M738 1239q0 -61 -90 -61q-92 0 -92 61q0 59 92 59q90 0 90 -59zM709 -98q0 -338 -553 -338h-85v78h85q431 0 431 268v1057h122v-1065z" />
    <glyph glyph-name="k" unicode="k" horiz-adv-x="1366" 
d="M1297 1h-149l-608 446l-344 -247v-200h-125v1432h125v-1127l940 679h149l-673 -485z" />
    <glyph glyph-name="l" unicode="l" horiz-adv-x="265" 
d="M196 0h-125v1432h125v-1432z" />
    <glyph glyph-name="m" unicode="m" horiz-adv-x="2133" 
d="M2064 0h-126v618q0 148 -135 226q-111 65 -270 65t-271 -64q-135 -79 -135 -227v-618h-123v618q0 148 -136 226q-111 65 -269 65q-179 0 -292 -80q-88 -63 -108 -154v-675h-128v592q0 9 1 25.5t1 25.5v324h126v-98q145 116 406 116q298 0 460 -188q169 188 462 188
q220 0 363 -85q174 -103 174 -308v-592z" />
    <glyph glyph-name="n" unicode="n" horiz-adv-x="1320" 
d="M1251 0h-123v573q0 169 -156 260q-129 76 -311 76q-180 0 -305 -66q-160 -83 -160 -247v-594h-1v-2h-123v2h-1v967h125v-133q162 149 465 149q242 0 400 -96q190 -116 190 -342v-547z" />
    <glyph glyph-name="o" unicode="o" horiz-adv-x="1603" 
d="M1534 483q0 -254 -251 -391q-203 -110 -479 -110q-275 0 -480 111q-253 137 -253 390t253 391q205 111 480 111q277 0 480 -111q250 -137 250 -391zM1402 485q0 216 -200 331q-165 93 -398 93q-235 0 -399 -93q-202 -114 -202 -331t202 -331q164 -93 399 -93
q230 0 396 95q202 115 202 329z" />
    <glyph glyph-name="p" unicode="p" 
d="M1530 483q0 -258 -251 -393q-201 -108 -482 -108q-141 0 -269 33q-213 55 -330 165v-640l-127 1v1457h125v-227q221 214 607 214q284 0 481 -107q246 -134 246 -395zM1398 485q0 218 -202 332q-164 92 -399 92q-297 0 -457 -143q-142 -128 -142 -332v-131
q114 -130 330 -201q125 -41 269 -41q237 0 400 92q201 113 201 332z" />
    <glyph glyph-name="q" unicode="q" 
d="M1530 998l-1 -1458h-127v640q-116 -110 -330 -165q-127 -33 -268 -33q-280 0 -482 109q-251 135 -251 392q0 261 245 395q197 107 482 107q386 0 606 -214v227h126zM1402 303v131q0 202 -144 331q-161 144 -454 144q-236 0 -400 -92q-201 -114 -201 -332q0 -221 200 -334
q161 -90 401 -90q144 0 268 41q217 71 330 201z" />
    <glyph glyph-name="r" unicode="r" horiz-adv-x="930" 
d="M861 875h-9q15 0 -170 14q-216 1 -350 -119q-139 -125 -139 -338v-432h-122v967h122v-189q176 193 507 193q26 -2 161 -15v-81z" />
    <glyph glyph-name="s" unicode="s" horiz-adv-x="1249" 
d="M1181 248q0 -248 -566 -248h-147q-272 0 -397 106l112 45q104 -71 285 -71h238q348 0 348 162q0 139 -331 200l-281 52q-361 67 -361 247q0 226 458 226h140v1h83q275 0 396 -102l-112 -45q-100 68 -298 68h-256q-285 0 -285 -152q0 -115 294 -170l292 -55
q388 -73 388 -264z" />
    <glyph glyph-name="t" unicode="t" horiz-adv-x="601" 
d="M589 887h-393v-691q0 -118 127 -118h87v-78h-65q-274 0 -274 188v1053h125v-274h393v-80z" />
    <glyph glyph-name="u" unicode="u" horiz-adv-x="1318" 
d="M1249 420q0 -226 -190 -342q-158 -96 -399 -96q-244 0 -400 95q-189 115 -189 343v547h122v-574q0 -171 155 -262q128 -74 312 -74q181 0 309 76q154 91 154 260v574h126v-547z" />
    <glyph glyph-name="v" unicode="v" horiz-adv-x="1458" 
d="M1389 967l-498 -889q-55 -98 -160 -98q-108 0 -163 98l-497 889h134l471 -848q25 -45 51 -45q32 0 56 44l471 849h135z" />
    <glyph glyph-name="w" unicode="w" horiz-adv-x="2148" 
d="M2079 967l-498 -889q-55 -98 -160 -98q-107 0 -163 98l-183 325l-184 -325q-56 -98 -160 -98q-108 0 -163 98l-497 889h134l471 -848q25 -45 51 -45q32 0 56 44l225 407l-247 442h135l470 -848q25 -45 51 -45q32 0 56 44l471 849h135z" />
    <glyph glyph-name="x" unicode="x" horiz-adv-x="1401" 
d="M1332 2h-137l-495 422l-493 -422h-136l562 495l-562 485h134l495 -413l482 413h135l-548 -485z" />
    <glyph glyph-name="y" unicode="y" horiz-adv-x="1334" 
d="M1265 30q0 -261 -237 -391q-190 -105 -473 -105q-257 0 -484 96l43 84q126 -61 275 -82q99 -14 172 -14q235 0 388 87q189 108 189 325v98q-163 -146 -463 -146q-244 0 -400 95q-190 115 -190 343v547h123v-574q0 -171 155 -262q128 -74 312 -74q181 0 309 76
q154 91 154 260v574h127v-937z" />
    <glyph glyph-name="z" unicode="z" horiz-adv-x="1200" 
d="M1131 0h-870q-190 0 -190 96q0 41 76 103l791 639q17 15 17 26q0 25 -55 25h-756v78h738q209 0 209 -90q0 -47 -65 -99l-786 -635q-24 -19 -24 -34q0 -25 64 -25h851v-84z" />
    <glyph glyph-name="braceleft" unicode="{" horiz-adv-x="1080" 
d="M1011 -212h-61q-299 0 -400 90q-85 76 -85 283v240q0 283 -394 327v4h1l4 1q150 15 260 94q129 94 129 233q0 297 -3 264q12 195 88 261q103 89 461 90v-83q-267 0 -339 -63q-63 -55 -66 -187q-1 -45 4 -120q6 -92 6 -121q4 -155 -32 -224q-59 -111 -245 -147
q190 -36 243 -134q35 -65 30 -218l-4 -88q-3 -62 0 -131q7 -177 63 -226q70 -62 340 -62v-83z" />
    <glyph glyph-name="bar" unicode="|" horiz-adv-x="274" 
d="M205 -483h-134v2048h134v-2048z" />
    <glyph glyph-name="braceright" unicode="}" horiz-adv-x="1080" 
d="M1011 728q-395 -44 -395 -327v-240q0 -207 -87 -283q-103 -90 -399 -90h-59v83q267 0 339 62q55 48 63 226q2 57 0 131l-4 88q-5 155 29 218q53 98 243 134q-184 36 -244 147q-37 67 -34 224q1 30 7 121q5 75 4 120q-3 132 -66 187q-72 63 -337 63v83q355 0 458 -90
q77 -67 89 -261q-2 33 -2 -264q0 -140 128 -233q110 -79 260 -94l4 -1h3v-4z" />
    <glyph glyph-name="asciitilde" unicode="~" horiz-adv-x="1456" 
d="M1387 1035q-78 -77 -154 -111q-111 -49 -271 -44q-87 3 -258.5 31.5t-258.5 31.5q-191 6 -295 -56h-79q75 79 153 113q107 47 277 41q84 -3 249.5 -31.5t248.5 -31.5q196 -8 307 57h81z" />
    <glyph glyph-name="quotesinglbase" unicode="&#x201a;" horiz-adv-x="389" 
d="M320 80q0 -14 -4 -26l2 -1l-110 -221h-137l75 177q-66 17 -66 71q0 75 125 75h3v1v-1q112 -1 112 -75z" />
    <glyph glyph-name="florin" unicode="&#x192;" horiz-adv-x="1179" 
d="M435 884h-149l20 82h149l31 128q42 171 204 264q143 83 331 83q62 0 120 -9l131 -20l-18 -78l-152 20q-45 6 -91 6q-337 0 -403 -275l-29 -118h467l-20 -80h-467l-244 -1016q-36 -148 -171 -243q-148 -104 -365 -104q-61 0 -119 9l-131 20l18 78l151 -20q46 -6 92 -6
q321 0 403 275l6 20z" />
    <glyph glyph-name="quotedblbase" unicode="&#x201e;" horiz-adv-x="778" 
d="M320 80q0 -14 -4 -26l2 -1l-110 -221h-137l75 177q-66 17 -66 71q0 75 125 75h3v1v-1q112 -1 112 -75zM709 80q0 -14 -3 -26l2 -1l-109 -221h-139l75 177q-66 17 -66 71q0 75 126 75h4v1v-1q110 -1 110 -75z" />
    <glyph glyph-name="ellipsis" unicode="&#x2026;" horiz-adv-x="2013" 
d="M345 68q0 -78 -114 -78q-116 0 -116 78q0 75 116 75q114 0 114 -75zM1098 68q0 -78 -114 -78q-115 0 -115 78q0 75 115 75q114 0 114 -75zM1869 68q0 -78 -114 -78q-115 0 -115 78q0 75 115 75q114 0 114 -75z" />
    <glyph glyph-name="dagger" unicode="&#x2020;" horiz-adv-x="964" 
d="M896 1095h-354v-1195h-136v1195h-335v76h335v261h136v-261h354v-76z" />
    <glyph glyph-name="daggerdbl" unicode="&#x2021;" horiz-adv-x="964" 
d="M896 211h-354v-311h-136v311h-335v76h335v808h-335v76h335v261h136v-261h354v-76h-354v-808h354v-76z" />
    <glyph glyph-name="circumflex" unicode="&#x2c6;" horiz-adv-x="959" 
d="M889 1121h-148l-260 237l-259 -237h-151l311 311h198z" />
    <glyph glyph-name="perthousand" unicode="&#x2030;" horiz-adv-x="2931" 
d="M2862 303q0 -159 -161 -242q-127 -65 -303 -65q-177 0 -302 64q-160 82 -160 243t160 244q125 65 302 65q176 0 303 -66q161 -83 161 -243zM996 1166q0 -159 -159 -242q-126 -65 -302 -65q-175 0 -303 65q-161 83 -161 242q0 160 161 243q127 66 303 66t302 -66
q159 -83 159 -243zM1683 1442l-1416 -1467h-134l1424 1467h126zM1812 303q0 -159 -161 -242q-127 -65 -303 -65q-177 0 -302 64q-160 82 -160 243t160 244q125 65 302 65q176 0 303 -66q161 -83 161 -243zM2736 303q0 117 -117 178q-93 50 -221 50t-221 -49
q-117 -62 -117 -179t117 -178q93 -49 221 -49q129 0 221 49q117 61 117 178zM870 1166q0 117 -115 178q-92 49 -220 49t-221 -49q-118 -61 -118 -178t118 -178q93 -49 221 -49q127 0 220 50q115 61 115 177zM1686 303q0 117 -117 178q-93 50 -221 50t-221 -49
q-118 -62 -118 -179t118 -178q93 -49 221 -49q129 0 221 49q117 61 117 178z" />
    <glyph glyph-name="Scaron" unicode="&#x160;" horiz-adv-x="1530" 
d="M1405 369q0 -215 -253 -308q-176 -64 -432 -61l-87 1v-1h-38q-508 0 -508 373v57h117v-57q0 -287 402 -287h48q216 0 369 41q235 63 235 235q0 130 -163 211q-87 43 -341 111l-138 37q-290 78 -391 134q-168 93 -168 255q0 322 680 322h154q507 0 507 -369v-57h-117v57
q0 291 -404 291h-178q-507 0 -507 -238q0 -123 133 -195q82 -44 304 -102l212 -56q284 -74 368 -122q196 -111 196 -272zM1138 1915h-148l-259 -237l-260 237h-151l312 -311h198z" />
    <glyph glyph-name="guilsinglleft" unicode="&#x2039;" horiz-adv-x="775" 
d="M706 172h-156l-479 317l479 318h156l-475 -318z" />
    <glyph glyph-name="OE" unicode="&#x152;" horiz-adv-x="2469" 
d="M1878 682h-410v-528q0 -13 6 -24q317 117 380 320q24 78 24 232zM1471 1307q-3 -9 -3 -19v-526h410q0 148 -26 228q-64 203 -381 317zM1353 94q-19 31 -19 61v1132h1q0 30 13 56q-137 31 -301 31q-399 0 -665 -191q-118 -85 -151 -209q-19 -74 -19 -255q0 -183 19 -254
q35 -126 151 -211q266 -193 665 -193q167 0 306 33zM2400 -15h-798q-90 0 -168 40q-177 -50 -387 -50q-453 0 -762 216q-138 96 -183 238q-31 99 -31 288q0 190 31 287q46 142 186 239q306 213 759 213q203 0 374 -42q73 43 181 43h798v-82h-810q-15 -2 -29 -5
q341 -132 420 -348q35 -94 38 -260h251v-80h-251q-3 -168 -46 -273q-57 -137 -209 -235q-105 -68 -198 -103q12 -3 24 -4h810v-82z" />
    <glyph glyph-name="quoteleft" unicode="&#x2018;" horiz-adv-x="389" 
d="M320 1453l-76 -176q68 -17 68 -71q0 -76 -128 -76l-1 1l-2 -2v2q-110 1 -110 74q0 15 4 27l-2 1l108 220h139z" />
    <glyph glyph-name="quoteright" unicode="&#x2019;" horiz-adv-x="389" 
d="M320 1377q0 -14 -4 -26l2 -1l-110 -221h-137l75 177q-66 17 -66 71q0 75 125 75h3v1v-1q112 -1 112 -75z" />
    <glyph glyph-name="quotedblleft" unicode="&#x201c;" horiz-adv-x="764" 
d="M695 1453l-75 -176q66 -17 66 -71q0 -76 -127 -76l-3 1q-111 1 -111 74q0 15 3 27l-1 1l109 220h139zM320 1453l-76 -176q66 -17 66 -71q0 -76 -126 -76l-3 1q-110 1 -110 74q0 15 2 27l-1 1l109 220h139z" />
    <glyph glyph-name="quotedblright" unicode="&#x201d;" horiz-adv-x="764" 
d="M695 1377q0 -14 -5 -26l1 -1l-107 -221h-139l76 177q-68 17 -68 71q0 75 127 75h2l2 1v-1q111 -1 111 -75zM320 1377q0 -14 -5 -26l1 -1l-108 -221h-137l75 177q-68 17 -68 71q0 75 127 75h2l1 1v-1q112 -1 112 -75z" />
    <glyph glyph-name="bullet" unicode="&#x2022;" horiz-adv-x="967" 
d="M898 762q0 -168 -131 -232q-93 -45 -284 -45t-283 45q-129 63 -129 232q0 168 132 231q92 44 283 44q190 0 282 -45q130 -63 130 -230z" />
    <glyph glyph-name="endash" unicode="&#x2013;" horiz-adv-x="1676" 
d="M1606 455h-1535v82h1535v-82z" />
    <glyph glyph-name="emdash" unicode="&#x2014;" horiz-adv-x="2596" 
d="M2527 455h-2456v82h2456v-82z" />
    <glyph glyph-name="tilde" unicode="&#x2dc;" horiz-adv-x="959" 
d="M889 1321q-49 -81 -96 -116q-67 -51 -169 -45q-55 3 -160.5 32.5t-160.5 32.5q-120 7 -183 -58h-49q46 81 94 117q66 49 172 43q54 -3 156 -32.5t155 -32.5q122 -8 190 59h51z" />
    <glyph glyph-name="trademark" unicode="&#x2122;" horiz-adv-x="2007" 
d="M1834 701l-1 688q0 6 -3 6q-3 -2 -8 -11l-293 -617q-35 -73 -110 -73q-76 0 -111 73l-292 617q-5 10 -10 11q-2 -3 -2 -6v-691h-104v688q0 68 105 68q83 0 110 -56l299 -633q2 -5 5 -5q1 5 4 9l300 629q27 56 110 56q103 0 103 -67l2 -686h-104zM504 1384v-686h-103v686
h-330v61h766v-61h-333z" />
    <glyph glyph-name="scaron" unicode="&#x161;" horiz-adv-x="1223" 
d="M1153 248q0 -248 -565 -248h-147q-272 0 -398 106l113 45q104 -71 285 -71h238q349 0 349 162q0 139 -332 200l-281 52q-361 67 -361 247q0 226 457 226h142v1h82q275 0 396 -102l-113 -45q-99 68 -297 68h-256q-285 0 -285 -152q0 -115 294 -170l292 -55
q387 -73 387 -264zM1006 1432h-148l-259 -237l-260 237h-151l312 -311h198z" />
    <glyph glyph-name="guilsinglright" unicode="&#x203a;" horiz-adv-x="775" 
d="M71 172h155l480 317l-480 318h-155l475 -318z" />
    <glyph glyph-name="oe" unicode="&#x153;" horiz-adv-x="2485" 
d="M1153 134q-198 140 -198 349q0 208 203 352q-147 74 -354 74q-235 0 -399 -93q-202 -114 -202 -331t202 -331q164 -93 399 -93q203 0 349 73zM1401 455h-312q13 -159 156 -264q144 109 156 264zM2416 499q0 -26 -7 -44h-876q-12 -189 -194 -321q154 -73 365 -73
q138 0 283 31q163 35 247 93l92 -59q-209 -144 -622 -144q-265 0 -456 96q-184 -96 -444 -96q-275 0 -480 111q-253 137 -253 390t253 391q205 111 480 111q258 0 444 -96q186 96 441 96q268 0 473 -108q254 -133 254 -378zM1247 780q-136 -100 -156 -245h309
q-20 143 -153 245zM2284 535q-27 192 -221 292q-159 82 -374 82q-204 0 -353 -74q173 -124 196 -300h752z" />
    <glyph glyph-name="Ydieresis" unicode="&#x178;" horiz-adv-x="1611" 
d="M1533 1432l-672 -721v-711h-126v709l-674 723h135l602 -644l600 644h135zM1185 1720q0 -78 -117 -78q-114 0 -114 78t114 78q117 0 117 -78zM696 1720q0 -78 -117 -78q-114 0 -114 78t114 78q117 0 117 -78z" />
    <glyph glyph-name="exclamdown" unicode="&#xa1;" horiz-adv-x="369" 
d="M300 1228q0 -75 -114 -75q-115 0 -115 75q0 78 115 78q114 0 114 -78zM250 -160h-128v1169h128v-1169z" />
    <glyph glyph-name="cent" unicode="&#xa2;" horiz-adv-x="1389" 
d="M476 122l434 781q-51 6 -106 6q-235 0 -399 -93q-202 -114 -202 -331q0 -180 163 -301q52 -38 110 -62zM1160 1113l-90 -160q137 -37 250 -113l-92 -53q-88 63 -198 93l-441 -796q98 -23 215 -23q251 0 424 124l89 -56q-215 -147 -513 -147q-138 0 -255 27l-68 -121h-136
l87 157q-83 34 -153 82q-208 143 -208 356q0 253 253 391q205 111 480 111q76 0 147 -9l74 132z" />
    <glyph glyph-name="sterling" unicode="&#xa3;" horiz-adv-x="1320" 
d="M1006 687h-686v-511q0 -72 121 -87h810v-82h-798q-97 0 -171 35q-98 46 -98 135v358h-1v152h-112v82h112v193q0 233 142 355q135 115 374 115q82 0 178 -15l323 -50l-39 -86l-330 54q-61 10 -117 10q-204 0 -309 -119q-87 -98 -87 -243v-94h2v-120h686v-82z" />
    <glyph glyph-name="currency" unicode="&#xa4;" horiz-adv-x="1200" 
d="M873 834q-113 -53 -261 -53q-156 0 -272 59l-172 -115l-87 58l174 115q-87 75 -87 180q0 100 78 173l-175 118l83 56l174 -115q120 65 284 65q156 0 272 -58l149 101l87 -58l-151 -101q84 -76 84 -181q0 -112 -93 -189l171 -115l-84 -56zM612 1312q-130 0 -223 -50
q-115 -62 -115 -182t115 -183q93 -50 223 -50t222 51q114 63 114 182q0 118 -115 181q-93 51 -221 51z" />
    <glyph glyph-name="yen" unicode="&#xa5;" horiz-adv-x="1611" 
d="M1487 307h-617v-307h-126v307h-605v82h605v283h-605v79h566l-634 681h134l602 -644l600 644h135l-635 -681h580v-79h-617v-283h617v-82z" />
    <glyph glyph-name="brokenbar" unicode="&#xa6;" horiz-adv-x="274" 
d="M205 814h-134v758h134v-758zM205 -180h-134v748h134v-748z" />
    <glyph glyph-name="section" unicode="&#xa7;" horiz-adv-x="1091" 
d="M238 441l5 2q21 -16 36 -27q39 -19 91 -34q35 -6 85 -6h214q237 0 237 150q0 53 -53 94l-4 -2q-21 16 -38 26q-37 19 -90 35q-34 6 -84 6h-214q-237 0 -237 -151q0 -53 52 -93zM93 1010q0 246 473 246h122q227 0 333 -105l-94 -45q-87 71 -239 71h-199q-291 0 -291 -161
q0 -138 278 -198l233 -51q30 -6 43 -10q94 -14 158 -65q102 -66 102 -170q0 -197 -295 -220q282 -75 282 -252q0 -245 -473 -245h-123q-226 0 -332 105l94 44q87 -70 238 -70h200q291 0 291 160q0 136 -278 198l-234 52q-22 5 -42 10q-94 14 -159 65q-101 66 -101 169
q0 197 295 221q-282 74 -282 251z" />
    <glyph glyph-name="dieresis" unicode="&#xa8;" horiz-adv-x="859" 
d="M790 1237q0 -78 -116 -78q-115 0 -115 78t115 78q116 0 116 -78zM302 1237q0 -78 -118 -78q-113 0 -113 78t113 78q118 0 118 -78z" />
    <glyph glyph-name="copyright" unicode="&#xa9;" horiz-adv-x="2178" 
d="M2109 717q0 -360 -285 -543q-310 -199 -732 -199q-468 0 -777 216q-244 171 -244 526q0 354 247 526q306 213 774 213q464 0 772 -216q245 -171 245 -523zM1968 719q0 319 -200 463q-266 192 -676 192q-414 0 -680 -191q-200 -144 -200 -464t200 -465q268 -193 680 -193
q410 0 676 194q200 145 200 464zM1542 984q-165 117 -394 117q-212 0 -363 -84q-186 -104 -186 -299q0 -194 186 -299q153 -86 363 -86q223 0 398 123l60 -67q-199 -128 -458 -128q-250 0 -435 101q-229 124 -229 354q0 229 229 353q186 101 435 101q274 0 479 -141z" />
    <glyph glyph-name="ordfeminine" unicode="&#xaa;" horiz-adv-x="1261" 
d="M1193 738h-125v110q-166 -123 -434 -123q-212 0 -366 77q-197 98 -197 289q0 194 193 291q151 76 366 76q273 0 438 -133v121h125v-708zM1098 961v95q0 178 -149 270q-125 78 -315 78q-180 0 -306 -65q-160 -82 -160 -246q0 -165 160 -247q125 -65 306 -65q107 0 207 31
q168 52 257 149z" />
    <glyph glyph-name="guillemotleft" unicode="&#xab;" horiz-adv-x="1165" 
d="M706 172h-156l-479 317l479 318h156l-475 -318zM1096 172h-156l-480 317l480 318h156l-475 -318z" />
    <glyph glyph-name="logicalnot" unicode="&#xac;" horiz-adv-x="1321" 
d="M1252 207h-116v250h-1065v82h1181v-332z" />
    <glyph glyph-name="registered" unicode="&#xae;" horiz-adv-x="2178" 
d="M2109 717q0 -360 -285 -543q-310 -199 -732 -199q-468 0 -777 216q-244 171 -244 526q0 354 247 526q306 213 774 213q464 0 772 -216q245 -171 245 -523zM1968 719q0 319 -200 463q-266 192 -676 192q-414 0 -680 -191q-200 -144 -200 -464t200 -465q268 -193 680 -193
q410 0 676 194q200 145 200 464zM1426 281l-200 359q-71 -12 -158 -12h-246v-348h-111v780q0 113 177 112l240 -1q154 -1 265 -58q141 -73 141 -212q0 -159 -208 -236l214 -384h-114zM1128 1102h-246q-60 -6 -60 -42v-362h273q324 0 324 202q0 104 -98 158q-80 44 -193 44z
" />
    <glyph glyph-name="macron" unicode="&#xaf;" horiz-adv-x="877" 
d="M808 1188h-737v100h737v-100z" />
    <glyph glyph-name="degree" unicode="&#xb0;" horiz-adv-x="960" 
d="M891 1176q0 -143 -142 -216q-111 -57 -269 -57t-269 57q-140 73 -140 216q0 144 142 217q112 57 270 57q155 0 267 -59q141 -73 141 -215zM803 1176q0 107 -113 166q-90 47 -207 47q-118 0 -208 -47q-112 -58 -112 -166t112 -166q90 -47 208 -47q117 0 207 47
q113 59 113 166z" />
    <glyph glyph-name="plusminus" unicode="&#xb1;" horiz-adv-x="1492" 
d="M1423 569h-613v-419h-120v419h-614v82h614v420h120v-420h613v-82zM1412 6h-1341v82h1341v-82z" />
    <glyph glyph-name="twosuperior" unicode="&#xb2;" horiz-adv-x="917" 
d="M490 962h-6q-243 0 -279 -157v-112q0 -36 59 -43h547v-69h-540q-175 0 -175 111v80q0 133 138 206q72 38 174 50h4q160 10 230 48q95 51 95 142q0 100 -95 149q-74 39 -183 39q-249 0 -284 -191h-104q35 260 389 260q149 0 254 -55q134 -69 134 -204q0 -120 -124 -193
q-105 -61 -234 -61z" />
    <glyph glyph-name="threesuperior" unicode="&#xb3;" horiz-adv-x="921" 
d="M401 565q-184 0 -330 91l79 45q109 -71 251 -71q126 0 219 45q120 58 120 171q0 99 -96 158q-76 46 -187 56h-184v63h183q228 19 228 141q0 141 -283 141q-119 0 -215 -50l-81 44q135 69 296 69q153 0 265 -50q129 -58 129 -155q0 -113 -171 -171q228 -77 228 -247
q0 -143 -163 -220q-127 -60 -288 -60z" />
    <glyph glyph-name="acute" unicode="&#xb4;" horiz-adv-x="646" 
d="M577 1432l-327 -351h-179l322 351h184z" />
    <glyph glyph-name="mu" unicode="&#xb5;" horiz-adv-x="1371" 
d="M1050 -246q-336 0 -336 180q0 26 10 49q-30 -1 -59 -1q-309 0 -469 149v-583h-125v1422h125v-3h2v-574q0 -169 156 -260q129 -76 311 -76q95 0 175 20q18 7 37 11q74 24 129 67q122 93 122 238v574h126v-547q0 -193 -147 -311q-85 -68 -206 -99q-21 -17 -43 -33
q-17 -17 -17 -48q0 -94 206 -98q34 -1 215 67.5t283 64.5v-73q-85 0 -258 -68t-237 -68z" />
    <glyph glyph-name="paragraph" unicode="&#xb6;" horiz-adv-x="1461" 
d="M1257 1283q0 74 -121 87h-139v-1498h-125v708h-49q-346 0 -533 112q-219 131 -219 326q0 226 225 341q178 92 425 92l402 1q97 0 171 -35q98 -46 98 -135v-1412h-135v1413z" />
    <glyph glyph-name="periodcentered" unicode="&#xb7;" horiz-adv-x="369" 
d="M300 735q0 -78 -114 -78q-115 0 -115 78q0 76 115 76q114 0 114 -76z" />
    <glyph glyph-name="periodcentered" unicode="&#x2219;" horiz-adv-x="369" 
d="M300 735q0 -78 -114 -78q-115 0 -115 78q0 76 115 76q114 0 114 -76z" />
    <glyph glyph-name="cedilla" unicode="&#xb8;" horiz-adv-x="970" 
d="M566 -456q-67 0 -239 68t-256 68v73q101 4 281.5 -64.5t215.5 -67.5q206 4 206 98q0 99 -169 99q-92 0 -150 -42l1 282h100v-184q42 13 94 13q91 0 162 -35q89 -45 89 -128q0 -180 -335 -180z" />
    <glyph glyph-name="onesuperior" unicode="&#xb9;" horiz-adv-x="441" 
d="M269 576v768l-198 -71v76l301 114v-887h-103z" />
    <glyph glyph-name="ordmasculine" unicode="&#xba;" horiz-adv-x="1025" 
d="M513 799q-166 0 -289 65q-153 80 -153 232q0 151 154 232q123 65 288 65q166 0 289 -65q153 -80 153 -232q0 -153 -153 -233q-122 -64 -289 -64zM513 1330q-130 0 -222 -51q-114 -63 -114 -182q0 -120 114 -182q92 -50 222 -50q128 0 221 51q115 63 115 181
q0 119 -114 182q-92 51 -222 51z" />
    <glyph glyph-name="guillemotright" unicode="&#xbb;" horiz-adv-x="1165" 
d="M460 172h156l480 317l-480 318h-156l476 -318zM71 172h155l480 317l-480 318h-155l475 -318z" />
    <glyph glyph-name="onequarter" unicode="&#xbc;" horiz-adv-x="2013" 
d="M1668 1432l-1425 -1457h-123l1422 1457h126zM269 576v768l-198 -71v76l301 114v-887h-103zM1759 244v-243h-111v243h-491q-137 0 -137 60q0 31 34 62l591 528h114v-585h185v-65h-185zM1648 781l-499 -449q-9 -8 -9 -16q0 -7 39 -7h469v472z" />
    <glyph glyph-name="onehalf" unicode="&#xbd;" horiz-adv-x="2098" 
d="M1668 1432l-1425 -1457h-123l1422 1457h126zM269 576v768l-198 -71v76l301 114v-887h-103zM1671 381h-5q-244 0 -280 -156v-113q0 -35 60 -42h546v-69h-539q-175 0 -175 111v80q0 132 138 206q71 38 174 49h5q160 11 229 48q94 51 94 142q0 100 -94 149q-74 39 -183 39
q-254 0 -284 -190h-106q38 259 392 259q148 0 253 -54q133 -69 133 -204q0 -121 -123 -194q-105 -61 -235 -61z" />
    <glyph glyph-name="threequarters" unicode="&#xbe;" horiz-adv-x="2194" 
d="M1849 1432l-1425 -1457h-122l1421 1457h126zM401 565q-184 0 -330 91l79 45q109 -71 251 -71q126 0 219 45q120 58 120 171q0 99 -96 158q-76 46 -187 56h-184v63h183q228 19 228 141q0 141 -283 141q-119 0 -215 -50l-81 44q135 69 296 69q153 0 265 -50
q129 -58 129 -155q0 -113 -171 -171q228 -77 228 -247q0 -143 -163 -220q-127 -60 -288 -60zM1941 244v-243h-111v243h-492q-136 0 -136 60q0 31 34 62l591 528h114v-585h185v-65h-185zM1830 781l-499 -449q-10 -8 -10 -16q0 -7 39 -7h470v472z" />
    <glyph glyph-name="questiondown" unicode="&#xbf;" horiz-adv-x="1339" 
d="M865 1226q0 -76 -115 -76q-114 0 -114 76q0 78 114 78q115 0 115 -78zM1270 237q-30 -213 -142 -288q-167 -111 -437 -111q-244 0 -409 84q-211 108 -211 329q0 206 216 316q157 80 399 100v359h128v-443h-43q-212 0 -361 -64q-205 -87 -205 -270q0 -176 167 -262
q129 -67 323 -67q216 0 344 88q55 37 77 99q9 25 28 130h126z" />
    <glyph glyph-name="Agrave" unicode="&#xc0;" horiz-adv-x="1546" 
d="M1478 0h-136v711h-1151v-711h-135v926q0 274 229 414q190 116 483 116q288 0 480 -119q230 -141 230 -411v-926zM1342 791v104q0 479 -574 479q-577 0 -577 -479v-104h1151zM505 1915l327 -351h180l-322 351h-185z" />
    <glyph glyph-name="Aacute" unicode="&#xc1;" horiz-adv-x="1546" 
d="M1478 0h-136v711h-1151v-711h-135v926q0 274 229 414q190 116 483 116q288 0 480 -119q230 -141 230 -411v-926zM1342 791v104q0 479 -574 479q-577 0 -577 -479v-104h1151zM997 1915l-326 -351h-181l323 351h184z" />
    <glyph glyph-name="Acircumflex" unicode="&#xc2;" horiz-adv-x="1563" 
d="M1478 0h-136v711h-1151v-711h-135v926q0 274 229 414q190 116 483 116q288 0 480 -119q230 -141 230 -411v-926zM1342 791v104q0 479 -574 479q-577 0 -577 -479v-104h1151zM1144 1604h-148l-259 237l-260 -237h-152l312 311h198z" />
    <glyph glyph-name="Atilde" unicode="&#xc3;" horiz-adv-x="1570" 
d="M1478 0h-136v711h-1151v-711h-135v926q0 274 229 414q190 116 483 116q288 0 480 -119q230 -141 230 -411v-926zM1342 791v104q0 479 -574 479q-577 0 -577 -479v-104h1151zM1129 1804q-49 -81 -96 -116q-67 -51 -169 -45q-55 3 -160.5 32.5t-160.5 32.5q-120 7 -183 -58
h-50q47 81 95 117q66 49 172 43q54 -3 156 -32.5t155 -32.5q122 -8 190 59h51z" />
    <glyph glyph-name="Adieresis" unicode="&#xc4;" horiz-adv-x="1546" 
d="M1478 0h-136v711h-1151v-711h-135v926q0 274 229 414q190 116 483 116q288 0 480 -119q230 -141 230 -411v-926zM1342 791v104q0 479 -574 479q-577 0 -577 -479v-104h1151zM1075 1720q0 -78 -116 -78q-115 0 -115 78t115 78q116 0 116 -78zM587 1720q0 -78 -118 -78
q-113 0 -113 78t113 78q118 0 118 -78z" />
    <glyph glyph-name="Aring" unicode="&#xc5;" horiz-adv-x="1561" 
d="M1134 1739q0 -119 -122 -183q-98 -51 -229 -51q-133 0 -229 50q-120 63 -120 184q0 120 121 183q96 50 228 50t229 -50q122 -63 122 -183zM1014 1739q0 75 -82 118q-67 35 -149 35t-148 -35q-81 -43 -81 -118t81 -118q66 -34 148 -34q83 0 149 34q82 43 82 118zM1492 0
h-135v711h-1152v-711h-134v926q0 274 229 414q190 116 483 116q339 0 531 -155q178 -144 178 -375v-926zM1357 791v104q0 479 -574 479q-578 0 -578 -479v-104h1152z" />
    <glyph glyph-name="AE" unicode="&#xc6;" horiz-adv-x="2496" 
d="M1360 210h-3v501h-1152v-711h-134v926q0 274 229 414q190 116 483 116q384 0 577 -197v34h2q0 90 94 135q73 35 173 35h798v-82h-810q-122 -12 -122 -87v-506h801v-80h-801v-538q0 -75 122 -87h810v-82h-798q-92 0 -171 39q-98 48 -98 131v39zM1357 791v104
q0 479 -574 479q-578 0 -578 -479v-104h1152z" />
    <glyph glyph-name="Ccedilla" unicode="&#xc7;" horiz-adv-x="1983" 
d="M1188 -456q-66 0 -238.5 68t-256.5 68v73q101 4 282 -64.5t216 -67.5q206 4 206 98q0 99 -170 99q-91 0 -150 -42l1 200q-422 16 -705 214q-302 212 -302 527q0 374 372 576q302 163 709 163q446 0 762 -217l-102 -53q-268 188 -660 188q-358 0 -620 -146
q-320 -178 -320 -509q0 -333 319 -512q261 -146 621 -146q383 0 660 195l72 -82q-300 -193 -705 -199v-101q42 13 93 13q92 0 163 -35q89 -45 89 -128q0 -180 -336 -180z" />
    <glyph glyph-name="Egrave" unicode="&#xc8;" horiz-adv-x="1185" 
d="M1113 0h-798q-95 0 -172 37q-97 48 -97 133v1092h2q0 90 94 135q73 35 173 35h798v-82h-810q-122 -12 -122 -87v-506h802v-80h-802v-508q0 -75 122 -87h810v-82zM346 1915l328 -351h179l-322 351h-185z" />
    <glyph glyph-name="Eacute" unicode="&#xc9;" horiz-adv-x="1185" 
d="M1113 0h-798q-95 0 -172 37q-97 48 -97 133v1092h2q0 90 94 135q73 35 173 35h798v-82h-810q-122 -12 -122 -87v-506h802v-80h-802v-508q0 -75 122 -87h810v-82zM853 1915l-327 -351h-180l323 351h184z" />
    <glyph glyph-name="Ecircumflex" unicode="&#xca;" horiz-adv-x="1185" 
d="M1113 0h-798q-95 0 -172 37q-97 48 -97 133v1092h2q0 90 94 135q73 35 173 35h798v-82h-810q-122 -12 -122 -87v-506h802v-80h-802v-508q0 -75 122 -87h810v-82zM1001 1604h-149l-260 237l-259 -237h-152l312 311h198z" />
    <glyph glyph-name="Edieresis" unicode="&#xcb;" horiz-adv-x="1178" 
d="M1113 0h-798q-95 0 -172 37q-97 48 -97 133v1092h2q0 90 94 135q73 35 173 35h798v-82h-810q-122 -12 -122 -87v-506h802v-80h-802v-508q0 -75 122 -87h810v-82zM946 1720q0 -78 -116 -78q-114 0 -114 78t114 78q116 0 116 -78zM457 1720q0 -78 -117 -78q-114 0 -114 78
t114 78q117 0 117 -78z" />
    <glyph glyph-name="Igrave" unicode="&#xcc;" horiz-adv-x="259" 
d="M195 0h-135v1432h135v-1432zM-160 1915l327 -351h179l-322 351h-184z" />
    <glyph glyph-name="Iacute" unicode="&#xcd;" horiz-adv-x="259" 
d="M195 0h-135v1432h135v-1432zM376 1915l-327 -351h-180l323 351h184z" />
    <glyph glyph-name="Icircumflex" unicode="&#xce;" horiz-adv-x="365" 
d="M229 0h-135v1432h135v-1432zM573 1604h-149l-259 237l-259 -237h-152l312 311h198z" />
    <glyph glyph-name="Idieresis" unicode="&#xcf;" horiz-adv-x="333" 
d="M224 0h-136v1432h136v-1432zM513 1720q0 -78 -117 -78q-114 0 -114 78t114 78q117 0 117 -78zM24 1720q0 -78 -117 -78q-114 0 -114 78t114 78q117 0 117 -78z" />
    <glyph glyph-name="Eth" unicode="&#xd0;" horiz-adv-x="1911" 
d="M247 690h-176v82h176l-1 526h1q0 90 95 135q72 35 172 35l366 1q453 0 719 -224q243 -205 243 -517q0 -315 -213 -508q-240 -217 -698 -217h-413q-93 0 -172 39q-97 48 -97 131zM1051 690h-669l2 -518q0 -75 121 -87l419 -1q401 0 603 197q174 170 174 449
q0 277 -201 456q-225 200 -626 200h-372q-121 -12 -121 -87l1 -527h669v-82z" />
    <glyph glyph-name="Ntilde" unicode="&#xd1;" horiz-adv-x="1587" 
d="M1509 124q0 -129 -173 -129q-117 0 -187 99l-884 1247q-14 21 -40 21q-41 0 -41 -37v-1325h-135v1315q0 129 173 129q118 0 188 -98l884 -1246q15 -21 40 -21q40 0 40 35v1318h135v-1308zM1179 1804q-49 -81 -96 -116q-67 -51 -169 -45q-55 3 -161 32.5t-161 32.5
q-120 7 -182 -58h-50q47 81 95 117q65 49 172 43q54 -3 156 -32.5t155 -32.5q121 -8 190 59h51z" />
    <glyph glyph-name="Ograve" unicode="&#xd2;" horiz-adv-x="2126" 
d="M2102 717q0 -360 -285 -543q-311 -199 -733 -199q-468 0 -777 216q-244 171 -244 526q0 354 247 526q307 213 774 213q464 0 773 -216q245 -171 245 -523zM1961 719q0 319 -200 463q-267 192 -677 192q-413 0 -679 -191q-201 -144 -201 -464t201 -465q267 -193 679 -193
q410 0 677 194q200 145 200 464zM830 1915l327 -351h179l-322 351h-184z" />
    <glyph glyph-name="Oacute" unicode="&#xd3;" horiz-adv-x="2190" 
d="M2116 717q0 -360 -285 -543q-310 -199 -732 -199q-468 0 -776 216q-245 171 -245 526q0 354 247 526q307 213 774 213q464 0 773 -216q244 -171 244 -523zM1975 719q0 319 -199 463q-267 192 -677 192q-413 0 -679 -191q-201 -144 -201 -464t201 -465q267 -193 679 -193
q410 0 677 194q199 145 199 464zM1336 1915l-327 -351h-179l322 351h184z" />
    <glyph glyph-name="Ocircumflex" unicode="&#xd4;" horiz-adv-x="2182" 
d="M2116 717q0 -360 -285 -543q-310 -199 -732 -199q-468 0 -776 216q-245 171 -245 526q0 354 247 526q307 213 774 213q464 0 773 -216q244 -171 244 -523zM1975 719q0 319 -199 463q-267 192 -677 192q-413 0 -679 -191q-201 -144 -201 -464t201 -465q267 -193 679 -193
q410 0 677 194q199 145 199 464zM1483 1604h-148l-260 237l-259 -237h-151l311 311h198z" />
    <glyph glyph-name="Otilde" unicode="&#xd5;" horiz-adv-x="2190" 
d="M2116 717q0 -360 -285 -543q-310 -199 -732 -199q-468 0 -776 216q-245 171 -245 526q0 354 247 526q307 213 774 213q464 0 773 -216q244 -171 244 -523zM1975 719q0 319 -199 463q-267 192 -677 192q-413 0 -679 -191q-201 -144 -201 -464t201 -465q267 -193 679 -193
q410 0 677 194q199 145 199 464zM1468 1804q-49 -81 -96 -116q-67 -51 -169 -45q-55 3 -160.5 32.5t-160.5 32.5q-120 7 -183 -58h-49q46 81 94 117q66 49 173 43q53 -3 155 -32.5t155 -32.5q122 -8 190 59h51z" />
    <glyph glyph-name="Odieresis" unicode="&#xd6;" horiz-adv-x="2173" 
d="M2102 717q0 -360 -285 -543q-311 -199 -733 -199q-468 0 -777 216q-244 171 -244 526q0 354 247 526q307 213 774 213q464 0 773 -216q245 -171 245 -523zM1961 719q0 319 -200 463q-267 192 -677 192q-413 0 -679 -191q-201 -144 -201 -464t201 -465q267 -193 679 -193
q410 0 677 194q200 145 200 464zM1414 1720q0 -78 -117 -78q-114 0 -114 78t114 78q117 0 117 -78zM925 1720q0 -78 -117 -78q-113 0 -113 78t113 78q117 0 117 -78z" />
    <glyph glyph-name="multiply" unicode="&#xd7;" horiz-adv-x="1202" 
d="M1122 899l-434 -290l445 -296l-86 -56l-444 296l-433 -289l-88 58l434 289l-445 297l85 56l445 -297l434 290z" />
    <glyph glyph-name="Oslash" unicode="&#xd8;" horiz-adv-x="2178" 
d="M698 115l689 1230q-136 29 -295 29q-414 0 -680 -191q-200 -144 -200 -464t200 -465q127 -91 286 -139zM1504 1314l-686 -1229q127 -24 274 -24q410 0 676 194q200 145 200 464t-200 463q-117 85 -264 132zM1632 1542l-83 -149q174 -54 315 -153q245 -171 245 -523
q0 -360 -285 -543q-310 -199 -732 -199q-171 0 -320 29l-56 -101h-137l74 129q-188 54 -338 159q-244 171 -244 526q0 354 247 526q306 213 774 213q182 0 339 -33l66 119h135z" />
    <glyph glyph-name="Ugrave" unicode="&#xd9;" horiz-adv-x="1522" 
d="M1478 506q0 -272 -229 -413q-191 -118 -481 -118q-295 0 -484 116q-228 139 -228 415v926h135v-891q0 -480 577 -480q574 0 574 480v891h136v-926zM490 1915l328 -351h179l-322 351h-185z" />
    <glyph glyph-name="Uacute" unicode="&#xda;" horiz-adv-x="1546" 
d="M1478 506q0 -272 -229 -413q-191 -118 -481 -118q-295 0 -484 116q-228 139 -228 415v926h135v-891q0 -480 577 -480q574 0 574 480v891h136v-926zM1028 1915l-328 -351h-179l322 351h185z" />
    <glyph glyph-name="Ucircumflex" unicode="&#xdb;" horiz-adv-x="1546" 
d="M1478 506q0 -272 -229 -413q-191 -118 -481 -118q-295 0 -484 116q-228 139 -228 415v926h135v-891q0 -480 577 -480q574 0 574 480v891h136v-926zM1174 1604h-148l-260 237l-259 -237h-151l311 311h198z" />
    <glyph glyph-name="Udieresis" unicode="&#xdc;" horiz-adv-x="1499" 
d="M1478 506q0 -272 -229 -413q-191 -118 -481 -118q-295 0 -484 116q-228 139 -228 415v926h135v-891q0 -480 577 -480q574 0 574 480v891h136v-926zM1120 1720q0 -78 -116 -78q-115 0 -115 78t115 78q116 0 116 -78zM632 1720q0 -78 -118 -78q-113 0 -113 78t113 78
q118 0 118 -78z" />
    <glyph glyph-name="Yacute" unicode="&#xdd;" horiz-adv-x="1570" 
d="M1518 1432l-672 -721v-711h-126v709l-674 723h135l602 -644l600 644h135zM1032 1915l-327 -351h-180l323 351h184z" />
    <glyph glyph-name="Thorn" unicode="&#xde;" horiz-adv-x="1509" 
d="M1440 767q0 -441 -643 -441q-218 0 -335 21q-172 31 -264 117v-470l-127 1v1467h125v-427q179 174 607 174q637 0 637 -442zM1308 769q0 364 -511 364q-599 0 -599 -415v-131q159 -182 599 -182q234 0 353 65q158 87 158 299z" />
    <glyph glyph-name="germandbls" unicode="&#xdf;" horiz-adv-x="1698" 
d="M278 689l-13 2l-194 82l207 -2v126h-20l-180 84h200q18 218 98 315q131 156 482 156q165 0 303 -72q168 -88 174 -238q4 -107 -108 -167q-70 -37 -210 -68q-114 -25 -113 -43q-3 -15 180 -92q232 -97 350 -181q191 -135 195 -286q7 -238 -257 -367q-212 -105 -471 -98
l-380 10v72q110 -16 232 -16q300 0 505 90q242 106 245 307q2 132 -190 244q-27 15 -358 163q-190 85 -186 156q5 67 120 94l207 48q110 40 107 134q-3 107 -122 175q-101 57 -217 57q-461 0 -461 -375v-999h-125v689z" />
    <glyph glyph-name="agrave" unicode="&#xe0;" horiz-adv-x="1569" 
d="M1500 0h-126v180q-119 -110 -330 -165q-127 -33 -269 -33q-280 0 -482 109q-251 135 -251 392q0 261 246 395q197 107 481 107q386 0 605 -214v197h126v-968zM1374 303v131q0 202 -144 331q-161 144 -455 144q-235 0 -399 -92q-202 -114 -202 -332q0 -221 200 -334
q162 -90 401 -90q144 0 269 41q216 71 330 201zM521 1432l327 -351h180l-323 351h-184z" />
    <glyph glyph-name="aacute" unicode="&#xe1;" horiz-adv-x="1569" 
d="M1500 0h-126v180q-119 -110 -330 -165q-127 -33 -269 -33q-280 0 -482 109q-251 135 -251 392q0 261 246 395q197 107 481 107q386 0 605 -214v197h126v-968zM1374 303v131q0 202 -144 331q-161 144 -455 144q-235 0 -399 -92q-202 -114 -202 -332q0 -221 200 -334
q162 -90 401 -90q144 0 269 41q216 71 330 201zM1012 1432l-326 -351h-181l323 351h184z" />
    <glyph glyph-name="acircumflex" unicode="&#xe2;" horiz-adv-x="1569" 
d="M1500 0h-126v180q-119 -110 -330 -165q-127 -33 -269 -33q-280 0 -482 109q-251 135 -251 392q0 261 246 395q197 107 481 107q386 0 605 -214v197h126v-968zM1374 303v131q0 202 -144 331q-161 144 -455 144q-235 0 -399 -92q-202 -114 -202 -332q0 -221 200 -334
q162 -90 401 -90q144 0 269 41q216 71 330 201zM1204 1121h-148l-259 237l-260 -237h-151l312 311h198z" />
    <glyph glyph-name="atilde" unicode="&#xe3;" horiz-adv-x="1569" 
d="M1500 0h-126v180q-119 -110 -330 -165q-127 -33 -269 -33q-280 0 -482 109q-251 135 -251 392q0 261 246 395q197 107 481 107q386 0 605 -214v197h126v-968zM1374 303v131q0 202 -144 331q-161 144 -455 144q-235 0 -399 -92q-202 -114 -202 -332q0 -221 200 -334
q162 -90 401 -90q144 0 269 41q216 71 330 201zM1219 1321q-49 -81 -96 -116q-67 -51 -169 -45q-55 3 -160.5 32.5t-160.5 32.5q-120 7 -183 -58h-49q46 81 94 117q66 49 172 43q54 -3 156 -32.5t155 -32.5q122 -8 190 59h51z" />
    <glyph glyph-name="adieresis" unicode="&#xe4;" horiz-adv-x="1569" 
d="M1500 0h-126v180q-119 -110 -330 -165q-127 -33 -269 -33q-280 0 -482 109q-251 135 -251 392q0 261 246 395q197 107 481 107q386 0 605 -214v197h126v-968zM1374 303v131q0 202 -144 331q-161 144 -455 144q-235 0 -399 -92q-202 -114 -202 -332q0 -221 200 -334
q162 -90 401 -90q144 0 269 41q216 71 330 201zM1136 1237q0 -78 -118 -78q-114 0 -114 78t114 78q118 0 118 -78zM646 1237q0 -78 -117 -78q-114 0 -114 78t114 78q117 0 117 -78z" />
    <glyph glyph-name="aring" unicode="&#xe5;" horiz-adv-x="1598" 
d="M1137 1286q0 -121 -122 -184q-97 -49 -230 -49q-134 0 -230 49q-121 63 -121 184q0 120 121 184q97 50 230 50t230 -50q122 -63 122 -184zM1014 1286q0 76 -79 119q-65 35 -148 35q-82 0 -149 -35q-82 -44 -82 -119t82 -118q67 -35 149 -35q83 0 148 35q79 42 79 118z
M1529 0h-127v180q-118 -110 -330 -165q-127 -33 -268 -33q-280 0 -482 109q-251 135 -251 392q0 261 245 395q197 107 482 107q385 0 604 -214v197h127v-968zM1402 303v131q0 202 -144 331q-161 144 -454 144q-236 0 -400 -92q-201 -114 -201 -332q0 -221 200 -334
q161 -90 401 -90q144 0 268 41q217 71 330 201z" />
    <glyph glyph-name="ae" unicode="&#xe6;" horiz-adv-x="2936" 
d="M1402 303v131q0 202 -144 331q-161 144 -454 144q-236 0 -400 -92q-201 -114 -201 -332q0 -221 200 -334q161 -90 401 -90q144 0 268 41q217 71 330 201zM2866 500q0 -26 -7 -44h-1320q19 -204 223 -309q165 -85 392 -85q138 0 283 31q163 35 246 93l93 -59
q-99 -70 -289 -109q-168 -35 -333 -35q-410 0 -625 214v-197h-127v180q-118 -110 -330 -165q-127 -33 -268 -33q-280 0 -482 109q-251 135 -251 392q0 261 245 395q197 107 482 107q385 0 604 -214v197h127v-199q211 217 610 217q269 0 473 -107q254 -133 254 -379z
M2734 536q-29 194 -221 293q-157 81 -374 81q-215 0 -375 -82q-194 -100 -224 -292h1194z" />
    <glyph glyph-name="ccedilla" unicode="&#xe7;" horiz-adv-x="1389" 
d="M882 -456q-66 0 -238.5 68t-256.5 68v73q101 4 282 -64.5t216 -67.5q206 4 206 98q0 99 -170 99q-92 0 -150 -42l1 206q-265 7 -461 119q-240 138 -240 382q0 253 253 391q205 111 480 111q303 0 516 -145l-92 -53q-174 122 -424 122q-235 0 -399 -93
q-202 -114 -202 -331t202 -331q164 -93 399 -93q251 0 424 124l89 -56q-189 -130 -444 -145v-110q42 13 93 13q92 0 163 -35q89 -45 89 -128q0 -180 -336 -180z" />
    <glyph glyph-name="egrave" unicode="&#xe8;" horiz-adv-x="1572" 
d="M1503 499q0 -26 -8 -44h-1320q18 -205 223 -310q165 -84 392 -84q138 0 284 31q163 35 246 93l93 -59q-210 -144 -623 -144q-281 0 -488 108q-260 136 -260 393q0 253 253 391q205 111 480 111q268 0 473 -108q255 -133 255 -378zM1371 535q-28 192 -222 292
q-159 82 -374 82q-214 0 -375 -82q-195 -100 -223 -292h1194zM523 1432l328 -351h179l-322 351h-185z" />
    <glyph glyph-name="eacute" unicode="&#xe9;" horiz-adv-x="1572" 
d="M1503 499q0 -26 -8 -44h-1320q18 -205 223 -310q165 -84 392 -84q138 0 284 31q163 35 246 93l93 -59q-210 -144 -623 -144q-281 0 -488 108q-260 136 -260 393q0 253 253 391q205 111 480 111q268 0 473 -108q255 -133 255 -378zM1371 535q-28 192 -222 292
q-159 82 -374 82q-214 0 -375 -82q-195 -100 -223 -292h1194zM1046 1432l-327 -351h-180l322 351h185z" />
    <glyph glyph-name="ecircumflex" unicode="&#xea;" horiz-adv-x="1572" 
d="M1503 499q0 -26 -8 -44h-1320q18 -205 223 -310q165 -84 392 -84q138 0 284 31q163 35 246 93l93 -59q-210 -144 -623 -144q-281 0 -488 108q-260 136 -260 393q0 253 253 391q205 111 480 111q268 0 473 -108q255 -133 255 -378zM1371 535q-28 192 -222 292
q-159 82 -374 82q-214 0 -375 -82q-195 -100 -223 -292h1194zM1207 1121h-148l-260 237l-259 -237h-151l311 311h198z" />
    <glyph glyph-name="edieresis" unicode="&#xeb;" horiz-adv-x="1572" 
d="M1503 499q0 -26 -8 -44h-1320q18 -205 223 -310q165 -84 392 -84q138 0 284 31q163 35 246 93l93 -59q-210 -144 -623 -144q-281 0 -488 108q-260 136 -260 393q0 253 253 391q205 111 480 111q268 0 473 -108q255 -133 255 -378zM1371 535q-28 192 -222 292
q-159 82 -374 82q-214 0 -375 -82q-195 -100 -223 -292h1194zM1138 1237q0 -78 -117 -78q-114 0 -114 78t114 78q117 0 117 -78zM650 1237q0 -78 -117 -78q-115 0 -115 78t115 78q117 0 117 -78z" />
    <glyph glyph-name="igrave" unicode="&#xec;" horiz-adv-x="238" 
d="M170 0h-127v967h127v-967zM-160 1432l327 -351h179l-322 351h-184z" />
    <glyph glyph-name="iacute" unicode="&#xed;" horiz-adv-x="254" 
d="M184 0h-125v967h125v-967zM346 1432l-327 -351h-179l322 351h184z" />
    <glyph glyph-name="icircumflex" unicode="&#xee;" horiz-adv-x="294" 
d="M204 0h-126v967h126v-967zM543 1121h-149l-259 237l-260 -237h-151l312 311h198z" />
    <glyph glyph-name="idieresis" unicode="&#xef;" horiz-adv-x="369" 
d="M243 0h-126v967h126v-967zM543 1237q0 -78 -117 -78q-114 0 -114 78t114 78q117 0 117 -78zM54 1237q0 -78 -117 -78q-114 0 -114 78t114 78q117 0 117 -78z" />
    <glyph glyph-name="eth" unicode="&#xf0;" horiz-adv-x="1753" 
d="M203 485q0 -221 200 -334q161 -90 401 -90q144 0 268 41q217 71 330 201v131q0 202 -144 331q-161 144 -454 144q-236 0 -400 -92q-201 -114 -201 -332zM1685 1273q-80 -79 -155 -112l-3 -1l2 -790l-16 -51q-26 -197 -441 -304q-127 -33 -268 -33q-282 0 -483 108
q-250 135 -250 393q0 261 245 395q197 107 482 107q386 0 606 -214v354q-65 -10 -147 -7q-87 3 -258 31t-258 31q-192 7 -294 -55h-79q73 79 151 112q109 46 278 41q84 -3 250 -31t249 -31q56 -2 108 2v210h126l-1 -187q40 12 73 32h83z" />
    <glyph glyph-name="ntilde" unicode="&#xf1;" horiz-adv-x="1348" 
d="M1249 0h-122v573q0 169 -156 260q-130 76 -311 76q-180 0 -306 -66q-159 -83 -159 -247v-594h-2v-2h-122v2h-2v967h126v-133q162 149 465 149q241 0 399 -96q190 -116 190 -342v-547zM1098 1321q-49 -81 -96 -116q-67 -51 -170 -45q-54 3 -160 32.5t-161 32.5
q-120 7 -183 -58h-49q47 81 94 117q66 49 173 43q54 -3 156 -32.5t154 -32.5q122 -8 191 59h51z" />
    <glyph glyph-name="ograve" unicode="&#xf2;" horiz-adv-x="1575" 
d="M1506 483q0 -254 -251 -391q-203 -110 -480 -110q-275 0 -480 111q-253 137 -253 390t253 391q205 111 480 111q277 0 480 -111q251 -137 251 -391zM1374 485q0 215 -201 330q-165 94 -398 94q-234 0 -399 -93q-202 -114 -202 -331t202 -331q165 -93 399 -93
q231 0 397 95q202 115 202 329zM511 1432l327 -351h180l-322 351h-185z" />
    <glyph glyph-name="oacute" unicode="&#xf3;" horiz-adv-x="1575" 
d="M1506 483q0 -254 -251 -391q-203 -110 -480 -110q-275 0 -480 111q-253 137 -253 390t253 391q205 111 480 111q277 0 480 -111q251 -137 251 -391zM1374 485q0 215 -201 330q-165 94 -398 94q-234 0 -399 -93q-202 -114 -202 -331t202 -331q165 -93 399 -93
q231 0 397 95q202 115 202 329zM1049 1432l-328 -351h-179l322 351h185z" />
    <glyph glyph-name="ocircumflex" unicode="&#xf4;" horiz-adv-x="1575" 
d="M1506 483q0 -254 -251 -391q-203 -110 -480 -110q-275 0 -480 111q-253 137 -253 390t253 391q205 111 480 111q277 0 480 -111q251 -137 251 -391zM1374 485q0 215 -201 330q-165 94 -398 94q-234 0 -399 -93q-202 -114 -202 -331t202 -331q165 -93 399 -93
q231 0 397 95q202 115 202 329zM1226 1121h-149l-259 237l-260 -237h-152l313 311h198z" />
    <glyph glyph-name="otilde" unicode="&#xf5;" horiz-adv-x="1575" 
d="M1506 483q0 -254 -251 -391q-203 -110 -480 -110q-275 0 -480 111q-253 137 -253 390t253 391q205 111 480 111q277 0 480 -111q251 -137 251 -391zM1374 485q0 215 -201 330q-165 94 -398 94q-234 0 -399 -93q-202 -114 -202 -331t202 -331q165 -93 399 -93
q231 0 397 95q202 115 202 329zM1165 1321q-49 -81 -95 -116q-68 -51 -170 -45q-55 3 -160.5 32.5t-160.5 32.5q-120 7 -183 -58h-50q47 81 95 117q66 49 172 43q54 -3 156 -32.5t155 -32.5q122 -8 191 59h50z" />
    <glyph glyph-name="odieresis" unicode="&#xf6;" horiz-adv-x="1575" 
d="M1506 483q0 -254 -251 -391q-203 -110 -480 -110q-275 0 -480 111q-253 137 -253 390t253 391q205 111 480 111q277 0 480 -111q251 -137 251 -391zM1374 485q0 215 -201 330q-165 94 -398 94q-234 0 -399 -93q-202 -114 -202 -331t202 -331q165 -93 399 -93
q231 0 397 95q202 115 202 329zM1127 1237q0 -78 -118 -78q-113 0 -113 78t113 78q118 0 118 -78zM637 1237q0 -78 -116 -78q-115 0 -115 78t115 78q116 0 116 -78z" />
    <glyph glyph-name="divide" unicode="&#xf7;" horiz-adv-x="1636" 
d="M967 956q0 -49 -51 -77q-42 -23 -96 -23q-53 0 -95 23q-51 28 -51 77t51 76q42 23 95 23q147 0 147 -99zM1567 569h-1496v82h1496v-82zM967 264q0 -98 -147 -98q-146 0 -146 98q0 49 51 78q42 23 95 23q54 0 96 -23q51 -29 51 -78z" />
    <glyph glyph-name="oslash" unicode="&#xf8;" horiz-adv-x="1603" 
d="M508 108l443 791q-69 10 -147 10q-235 0 -399 -93q-202 -114 -202 -331q0 -180 163 -301q65 -48 142 -76zM1071 871l-444 -795q82 -15 177 -15q230 0 396 95q202 115 202 329q0 180 -162 300q-74 55 -169 86zM1189 1083l-77 -139q121 -36 217 -103q205 -144 205 -358
q0 -254 -251 -391q-203 -110 -479 -110q-117 0 -219 20l-50 -89h-136l68 120q-101 34 -188 94q-208 145 -208 356q0 253 253 391q205 111 480 111q99 0 187 -14l63 112h135z" />
    <glyph glyph-name="ugrave" unicode="&#xf9;" horiz-adv-x="1296" 
d="M1247 420q0 -226 -191 -342q-158 -96 -399 -96q-244 0 -400 95q-190 115 -190 343v547h124v-574q0 -171 154 -262q128 -74 312 -74q181 0 309 76q154 91 154 260v574h127v-547zM397 1432l327 -351h180l-322 351h-185z" />
    <glyph glyph-name="uacute" unicode="&#xfa;" horiz-adv-x="1303" 
d="M1247 420q0 -226 -191 -342q-158 -96 -399 -96q-244 0 -400 95q-190 115 -190 343v547h124v-574q0 -171 154 -262q128 -74 312 -74q181 0 309 76q154 91 154 260v574h127v-547zM935 1432l-327 -351h-181l323 351h185z" />
    <glyph glyph-name="ucircumflex" unicode="&#xfb;" horiz-adv-x="1303" 
d="M1247 420q0 -226 -191 -342q-158 -96 -399 -96q-244 0 -400 95q-190 115 -190 343v547h124v-574q0 -171 154 -262q128 -74 312 -74q181 0 309 76q154 91 154 260v574h127v-547zM1067 1121h-149l-260 237l-259 -237h-152l312 311h198z" />
    <glyph glyph-name="udieresis" unicode="&#xfc;" horiz-adv-x="1311" 
d="M1247 420q0 -226 -191 -342q-158 -96 -399 -96q-244 0 -400 95q-190 115 -190 343v547h124v-574q0 -171 154 -262q128 -74 312 -74q181 0 309 76q154 91 154 260v574h127v-547zM997 1237q0 -78 -117 -78q-114 0 -114 78t114 78q117 0 117 -78zM508 1237q0 -78 -117 -78
q-113 0 -113 78t113 78q117 0 117 -78z" />
    <glyph glyph-name="yacute" unicode="&#xfd;" horiz-adv-x="1311" 
d="M1247 30q0 -261 -237 -391q-190 -105 -473 -105q-257 0 -485 96l44 84q126 -61 274 -82q100 -14 173 -14q235 0 388 87q189 108 189 325v98q-163 -146 -463 -146q-244 0 -400 95q-190 115 -190 343v547h124v-574q0 -171 154 -262q128 -74 312 -74q181 0 309 76
q154 91 154 260v574h127v-937zM919 1432l-327 -351h-180l323 351h184z" />
    <glyph glyph-name="thorn" unicode="&#xfe;" 
d="M1530 484q0 -258 -251 -393q-201 -108 -482 -108q-141 0 -269 33q-213 55 -330 165v-640l-127 1v1917h125v-687q221 214 607 214q284 0 481 -107q246 -134 246 -395zM1398 486q0 218 -202 332q-164 92 -399 92q-256 0 -415 -108q-184 -125 -184 -367v-131
q114 -130 330 -201q125 -41 269 -41q238 0 400 91q201 113 201 333z" />
    <glyph glyph-name="ydieresis" unicode="&#xff;" horiz-adv-x="1326" 
d="M1261 30q0 -261 -236 -391q-190 -105 -473 -105q-257 0 -485 96l44 84q126 -61 275 -82q99 -14 172 -14q235 0 388 87q190 108 190 325v98q-164 -146 -464 -146q-244 0 -400 95q-190 115 -190 343v547h123v-574q0 -171 155 -262q128 -74 312 -74q181 0 309 76
q155 91 155 260v574h125v-937zM997 1237q0 -78 -117 -78q-114 0 -114 78t114 78q117 0 117 -78zM508 1237q0 -78 -117 -78q-113 0 -113 78t113 78q117 0 117 -78z" />
  </font>
</defs>
</svg>
